PathFileType        4      (X/Y/Z)      C:\Users\cpontonn\Documents\TRAVAIL - COURS\FORMATION DOCTORALE\COURS AUTOMNE\DATA\ESCRIME PROPRE\C3Ds\trial10.trc         
DataRate	CameraRate	NumFrames	NumMarkers	Units	OrigDataRate	OrigDataStartFrame	OrigNumFrames
250.0	250.0	4	45	mm	250.0	773	883
Frame#	Time	LCAR			LFHD			LBHD			RFHD			RBHD			C7			T10			CLAV			STRN			LSHO			LUPA			LRAD			LHUM			LWRB			LWRA			RSHO			RBAC			RUPA			RRAD			RHUM			RWRB			RWRA			RCAR			LFWT			LBWT			RFWT			RBWT			LTHI			LKNE			LKNI			LANE			LANI			LHEE			LTAR			LTARI			LTOE			RTHI			RKNE			RKNI			RANE			RANI			RHEE			RTAR			RTARI			RTOE			
		X1	Y1	Z1	X2	Y2	Z2	X3	Y3	Z3	X4	Y4	Z4	X5	Y5	Z5	X6	Y6	Z6	X7	Y7	Z7	X8	Y8	Z8	X9	Y9	Z9	X10	Y10	Z10	X11	Y11	Z11	X12	Y12	Z12	X13	Y13	Z13	X14	Y14	Z14	X15	Y15	Z15	X16	Y16	Z16	X17	Y17	Z17	X18	Y18	Z18	X19	Y19	Z19	X20	Y20	Z20	X21	Y21	Z21	X22	Y22	Z22	X23	Y23	Z23	X24	Y24	Z24	X25	Y25	Z25	X26	Y26	Z26	X27	Y27	Z27	X28	Y28	Z28	X29	Y29	Z29	X30	Y30	Z30	X31	Y31	Z31	X32	Y32	Z32	X33	Y33	Z33	X34	Y34	Z34	X35	Y35	Z35	X36	Y36	Z36	X37	Y37	Z37	X38	Y38	Z38	X39	Y39	Z39	X40	Y40	Z40	X41	Y41	Z41	X42	Y42	Z42	X43	Y43	Z43	X44	Y44	Z44	X45	Y45	Z45	
773	3.088	2002.43726	943.2334	94.73079999999993	1521.4541	1646.93506	185.84642000000002	1434.68005	1606.41736	147.94482	1459.96643	1681.11218	389.86844	1351.57031	1626.43567	372.95486000000005	1339.01501	1481.30347	212.70036	1263.64978	1226.01086	147.89026	1433.62866	1375.20642	329.02419999999995	1431.62915	1215.44263	348.32323999999994	1523.55444	1381.33936	135.19484	1588.25598	1274.08069	149.9176	1634.56726	1099.65942	58.558629999999965	1589.65991	1059.23938	111.32926999999997	1831.11108	903.06317	110.37029999999994	1876.51099	990.38342	135.24923999999993	1227.11133	1445.24316	383.0378400000001	1191.49548	1385.46729	238.52228	1127.62085	1251.62451	445.60526	1022.5592	1194.78699	431.68958	1042.72253	1157.74353	353.9707	1096.53369	978.04022	580.80103	1182.94885	1016.87158	571.06189	1168.20911	974.72107	644.68341	1448.68396	974.45172	225.39580999999998	1257.33923	1023.63879	110.45828999999999	1268.59827	970.95111	367.29993	1199.76086	1030.65894	157.51447999999996	1506.89319	814.28992	123.42929999999997	1552.38782	530.13507	145.30547999999993	1505.23328	496.24026	273.99288999999993	1475.69922	114.19661999999998	126.99753999999992	1441.22485	129.87065	215.5469799999999	1390.18933	81.93995999999999	138.48227999999992	1598.57312	38.82561999999999	179.13155999999992	1551.81665	60.846279999999986	271.6710799999999	1632.03223	63.73054999999999	275.6097699999999	1194.74377	574.86212	382.68854	1097.02307	527.26593	327.02567	1215.46643	476.91266	286.24539	989.61511	153.78812	129.30121999999994	1081.12732	123.23823999999999	156.56585999999993	1042.87024	119.64826	68.18625999999996	940.57898	40.027129999999985	245.74621999999994	1052.44568	46.99367999999998	264.2143899999999	1020.68866	48.650129999999976	323.81353999999993	
774	3.092	2000.81018	943.58112	95.37623999999992	1519.85217	1648.57031	185.89285000000004	1433.20715	1607.93811	147.85345	1457.96436	1682.85254	389.78091	1349.73181	1627.99194	372.73514000000006	1337.61096	1482.82239	212.60701	1262.17151	1227.66614	147.78198	1432.14661	1376.92578	329.12645999999995	1430.13098	1217.07458	348.42629999999997	1522.32275	1382.86597	135.73753	1586.91797	1275.48438	150.31239	1632.98254	1100.9978	58.88403999999996	1587.9248	1060.70178	111.46718999999997	1829.02454	904.14545	111.42893999999994	1875.09998	991.34735	135.47481999999994	1225.56665	1446.74658	382.7684300000001	1190.12341	1387.2312	238.11816	1126.07483	1252.80066	444.67496	1021.01752	1195.97693	430.37003	1041.21729	1159.45911	352.37625	1094.75696	978.49481	578.49707	1181.2749	1017.24377	569.1142	1166.40857	974.52917	642.38293	1446.63306	975.86749	225.05575999999996	1255.58643	1025.68604	110.22345999999999	1266.66443	972.4201	367.09827	1197.90576	1032.66748	157.44558999999998	1504.48669	814.6781	124.23794999999997	1547.13684	529.93781	146.06014999999994	1499.19397	496.63394	274.69573999999994	1464.22876	115.40450999999999	126.88139999999991	1430.09119	131.39854	215.5076599999999	1378.229	84.40741999999999	138.25808999999992	1585.92078	38.515819999999984	178.8706099999999	1539.60486	60.742499999999986	271.73498999999987	1619.69299	62.671829999999986	275.53118999999987	1192.90747	576.15228	382.44205	1095.31885	528.73022	326.73111	1213.84534	478.26495	286.17538	988.51544	154.47128	129.92733999999993	1080.2439	124.16150999999999	157.01407999999995	1042.04297	120.90111	68.70369999999996	940.39429	39.990239999999986	245.98215999999994	1052.22729	47.08063999999999	264.29796999999996	1020.77252	48.68236999999998	323.80523999999997	
775	3.096	1999.15198	943.71228	95.96102999999992	1518.23975	1650.19214	185.91119000000003	1431.78467	1609.36169	147.7975	1456.04443	1684.5437	389.66382	1347.85999	1629.58679	372.4930100000001	1336.23035	1484.30981	212.51271	1260.70593	1229.28125	147.65204	1430.62756	1378.57458	329.16796999999997	1428.60071	1218.65247	348.6028099999999	1521.11902	1384.74585	135.78918	1585.65442	1276.87122	150.71593	1631.48157	1102.18506	59.30084999999996	1586.16431	1062.04468	111.57145999999997	1827.01453	905.02148	112.64894999999994	1873.74951	992.2691	135.75365999999994	1223.93457	1448.20227	382.4796400000001	1188.76929	1388.86096	237.68095	1124.4939	1253.93176	443.6871	1019.50653	1197.06836	428.95123	1039.76489	1161.05566	350.78915	1093.00403	978.88165	576.27008	1179.55774	1017.58856	567.09668	1164.66736	974.34222	640.0946	1444.68091	977.08252	224.72980999999996	1253.92065	1027.67456	110.00662999999999	1264.67944	973.90112	366.67764	1196.01404	1034.58704	157.33533999999997	1502.35706	814.89575	125.38981999999997	1541.87476	529.68817	146.99273999999994	1492.94812	496.94928	275.27001999999993	1453.03149	116.73928999999998	126.80134999999993	1419.00732	133.0451	215.3807099999999	1366.43005	86.83539999999999	138.1811399999999	1573.50195	38.33809999999998	178.32255999999992	1527.48303	60.59545999999999	271.69448999999986	1607.55408	61.44477999999999	275.5287499999999	1191.17542	577.47455	382.13699	1093.44812	530.0564	326.42072	1212.28003	479.52063	286.21411	987.69818	155.29425	130.57636999999994	1079.43274	125.05359999999999	157.48476999999994	1041.17529	122.13652	69.24702999999995	940.16357	39.94048999999998	246.23194999999996	1051.95337	47.15412999999999	264.44881999999996	1020.79279	48.57440999999998	323.78432999999995	
776	3.1	1997.58142	943.82214	96.59023999999992	1516.71899	1651.68079	185.91405000000003	1430.36621	1610.70117	147.72011	1454.10706	1686.16418	389.53922	1346.01807	1631.01062	372.24484000000007	1334.9397	1485.69348	212.45805	1259.28601	1230.81348	147.48697	1429.21094	1380.04858	329.16381999999993	1427.11658	1220.13599	348.7124299999999	1519.94128	1386.3595	135.97542	1584.45459	1278.18213	151.0661	1629.89929	1103.33118	59.70204999999997	1584.47986	1063.34644	111.79799999999997	1825.13965	905.98334	113.57359999999994	1872.45911	993.06104	135.95173999999994	1222.36658	1449.61414	382.14984000000004	1187.54211	1390.46289	237.18924	1122.91602	1254.99475	442.68942	1017.98749	1198.12585	427.5054	1038.41187	1162.56409	349.21448	1091.34314	979.29272	574.03101	1177.995	1017.91888	564.88696	1162.85168	974.10773	637.83997	1442.73157	978.23962	224.65804999999997	1252.30469	1029.53638	109.78924999999998	1262.71509	975.33759	366.38269	1194.11792	1036.44678	157.21930999999998	1499.85559	815.17786	126.11470999999997	1536.63684	529.49628	147.88985999999994	1486.55566	497.23575	275.83504999999997	1442.15112	118.02260999999999	126.72782999999993	1408.40649	134.5204	215.37884999999991	1355.24109	89.17479999999999	138.0049699999999	1561.30127	38.295619999999985	178.06736999999993	1515.63928	60.332869999999986	271.6963499999999	1595.64771	60.264029999999984	275.6520999999999	1189.39624	578.7179	381.96875	1091.76624	531.28467	326.26108	1210.75	480.7533	286.24692	986.85577	156.04649	131.24869999999996	1078.56201	125.96697999999999	157.85022999999995	1040.30078	123.32179	69.81123999999996	939.9906	39.88227999999999	246.49694999999994	1051.7887	47.34952999999999	264.49935999999997	1020.92535	48.56542999999998	323.65520999999995	
